<svg xmlns="http://www.w3.org/2000/svg" width="32.253" height="38.96" viewBox="0 0 32.253 38.96">
  <g id="Group_13" data-name="Group 13" transform="translate(-1119.682 -252.545)">
    <line id="Line_12" data-name="Line 12" x2="29.253" transform="translate(1121.182 259.429)" fill="none" stroke="#ff3e3e" stroke-linecap="round" stroke-width="3"/>
    <path id="Path_2" data-name="Path 2" d="M3231.136-244.5s-.2,24.162,0,27.264a3.368,3.368,0,0,0,3.047,3.3H3249.2a2.8,2.8,0,0,0,3.158-2.843c.048-3.128,0-27.719,0-27.719Z" transform="translate(-2105.646 503.929)" fill="none" stroke="#ff3e3e" stroke-width="3"/>
    <path id="Path_3" data-name="Path 3" d="M3234.411-242.253a8.271,8.271,0,0,1,0-3.617,3.183,3.183,0,0,1,1.97-1.767h9.752a2.734,2.734,0,0,1,1.547,1.767,10.484,10.484,0,0,1,0,3.617Z" transform="translate(-2104.793 501.682)" fill="none" stroke="#ff3e3e" stroke-width="3"/>
    <line id="Line_13" data-name="Line 13" y2="18.944" transform="translate(1130.933 265.054)" fill="none" stroke="#ff3e3e" stroke-linecap="round" stroke-width="3"/>
    <line id="Line_14" data-name="Line 14" y2="18.944" transform="translate(1135.809 265.054)" fill="none" stroke="#ff3e3e" stroke-linecap="round" stroke-width="3"/>
    <line id="Line_15" data-name="Line 15" y2="18.944" transform="translate(1140.684 265.054)" fill="none" stroke="#ff3e3e" stroke-linecap="round" stroke-width="3"/>
  </g>
</svg>
